<mxfile host="Electron" agent="Mozilla/5.0 (Windows NT 10.0; Win64; x64) AppleWebKit/537.36 (KHTML, like Gecko) draw.io/24.7.17 Chrome/128.0.6613.36 Electron/32.0.1 Safari/537.36" version="24.7.17" pages="5">
  <diagram name="Junk" id="plYHaiUwTLlLrbvezk-f">
    <mxGraphModel dx="1434" dy="956" grid="1" gridSize="10" guides="1" tooltips="1" connect="1" arrows="1" fold="1" page="1" pageScale="1" pageWidth="850" pageHeight="1100" math="0" shadow="0">
      <root>
        <mxCell id="0" />
        <mxCell id="1" parent="0" />
        <mxCell id="GrT-gT4pRS4pKtk1SvHF-1" value="" style="endArrow=oval;html=1;rounded=0;startArrow=oval;startFill=1;endFill=1;" edge="1" parent="1">
          <mxGeometry width="50" height="50" relative="1" as="geometry">
            <mxPoint x="120" y="200" as="sourcePoint" />
            <mxPoint x="200" y="120" as="targetPoint" />
          </mxGeometry>
        </mxCell>
        <mxCell id="GrT-gT4pRS4pKtk1SvHF-2" value="" style="endArrow=oval;html=1;rounded=0;startArrow=oval;startFill=1;endFill=1;" edge="1" parent="1">
          <mxGeometry width="50" height="50" relative="1" as="geometry">
            <mxPoint x="200" y="120" as="sourcePoint" />
            <mxPoint x="360" y="200" as="targetPoint" />
          </mxGeometry>
        </mxCell>
        <mxCell id="GrT-gT4pRS4pKtk1SvHF-5" value="(x2, 0)" style="text;html=1;align=center;verticalAlign=middle;whiteSpace=wrap;rounded=0;" vertex="1" parent="1">
          <mxGeometry x="330" y="210" width="60" height="30" as="geometry" />
        </mxCell>
        <mxCell id="GrT-gT4pRS4pKtk1SvHF-6" value="(x1, y1)" style="text;html=1;align=center;verticalAlign=middle;whiteSpace=wrap;rounded=0;" vertex="1" parent="1">
          <mxGeometry x="170" y="80" width="60" height="30" as="geometry" />
        </mxCell>
        <mxCell id="GrT-gT4pRS4pKtk1SvHF-7" value="(x0, 0)" style="text;html=1;align=center;verticalAlign=middle;whiteSpace=wrap;rounded=0;" vertex="1" parent="1">
          <mxGeometry x="90" y="210" width="60" height="30" as="geometry" />
        </mxCell>
        <mxCell id="GrT-gT4pRS4pKtk1SvHF-8" value="left" style="text;html=1;align=center;verticalAlign=middle;whiteSpace=wrap;rounded=0;" vertex="1" parent="1">
          <mxGeometry x="100" y="130" width="60" height="30" as="geometry" />
        </mxCell>
        <mxCell id="GrT-gT4pRS4pKtk1SvHF-9" value="right" style="text;html=1;align=center;verticalAlign=middle;whiteSpace=wrap;rounded=0;" vertex="1" parent="1">
          <mxGeometry x="284" y="130" width="60" height="30" as="geometry" />
        </mxCell>
      </root>
    </mxGraphModel>
  </diagram>
  <diagram id="0v0mO4xAlyIyDDgERhe0" name="Parts">
    <mxGraphModel dx="478" dy="319" grid="1" gridSize="10" guides="1" tooltips="1" connect="1" arrows="1" fold="1" page="1" pageScale="1" pageWidth="850" pageHeight="1100" math="0" shadow="0">
      <root>
        <mxCell id="0" />
        <mxCell id="1" parent="0" />
        <mxCell id="cNIB_TQhAoSaPseY759D-47" value="" style="rounded=0;whiteSpace=wrap;html=1;fillColor=none;strokeColor=#FF0000;" vertex="1" parent="1">
          <mxGeometry x="20" y="490" width="320" height="230" as="geometry" />
        </mxCell>
        <mxCell id="pVZ09ekF2YAhj7uZyrMJ-1" value="" style="endArrow=none;html=1;rounded=0;strokeWidth=2;entryX=0;entryY=1;entryDx=0;entryDy=0;entryPerimeter=0;" edge="1" parent="1" target="cNIB_TQhAoSaPseY759D-33">
          <mxGeometry width="50" height="50" relative="1" as="geometry">
            <mxPoint x="280" y="680" as="sourcePoint" />
            <mxPoint x="150" y="750" as="targetPoint" />
          </mxGeometry>
        </mxCell>
        <mxCell id="cNIB_TQhAoSaPseY759D-48" value="" style="endArrow=none;html=1;rounded=0;strokeWidth=2;" edge="1" parent="1">
          <mxGeometry width="50" height="50" relative="1" as="geometry">
            <mxPoint x="120" y="685" as="sourcePoint" />
            <mxPoint x="120" y="675" as="targetPoint" />
          </mxGeometry>
        </mxCell>
        <mxCell id="cNIB_TQhAoSaPseY759D-50" value="" style="endArrow=none;html=1;rounded=0;strokeWidth=2;" edge="1" parent="1">
          <mxGeometry width="50" height="50" relative="1" as="geometry">
            <mxPoint x="200" y="685" as="sourcePoint" />
            <mxPoint x="200" y="675" as="targetPoint" />
          </mxGeometry>
        </mxCell>
        <mxCell id="cNIB_TQhAoSaPseY759D-51" value="" style="endArrow=none;html=1;rounded=0;strokeWidth=2;" edge="1" parent="1">
          <mxGeometry width="50" height="50" relative="1" as="geometry">
            <mxPoint x="240" y="685" as="sourcePoint" />
            <mxPoint x="240" y="675" as="targetPoint" />
          </mxGeometry>
        </mxCell>
        <mxCell id="cNIB_TQhAoSaPseY759D-22" value="" style="group;fillColor=default;" vertex="1" connectable="0" parent="1">
          <mxGeometry x="80" y="320" width="200" height="160" as="geometry" />
        </mxCell>
        <mxCell id="cNIB_TQhAoSaPseY759D-19" value="" style="verticalLabelPosition=bottom;verticalAlign=top;html=1;shape=mxgraph.basic.acute_triangle;dx=0.34;fillColor=#FFFFFF;strokeColor=#FFFFFF;fontColor=#333333;" vertex="1" parent="cNIB_TQhAoSaPseY759D-22">
          <mxGeometry y="40" width="120" height="120" as="geometry" />
        </mxCell>
        <mxCell id="cNIB_TQhAoSaPseY759D-20" value="" style="verticalLabelPosition=bottom;verticalAlign=top;html=1;shape=mxgraph.basic.acute_triangle;dx=0.67;fillColor=#FFFFFF;strokeColor=#FFFFFF;fontColor=#333333;" vertex="1" parent="cNIB_TQhAoSaPseY759D-22">
          <mxGeometry x="40" width="120" height="160" as="geometry" />
        </mxCell>
        <mxCell id="cNIB_TQhAoSaPseY759D-21" value="" style="verticalLabelPosition=bottom;verticalAlign=top;html=1;shape=mxgraph.basic.acute_triangle;dx=0.5;fillColor=#FFFFFF;strokeColor=#FFFFFF;fontColor=#333333;" vertex="1" parent="cNIB_TQhAoSaPseY759D-22">
          <mxGeometry x="120" y="120" width="80" height="40" as="geometry" />
        </mxCell>
        <mxCell id="cNIB_TQhAoSaPseY759D-2" value="" style="endArrow=oval;html=1;rounded=0;startArrow=oval;startFill=1;endFill=1;" edge="1" parent="1">
          <mxGeometry width="50" height="50" relative="1" as="geometry">
            <mxPoint x="200" y="120" as="sourcePoint" />
            <mxPoint x="360" y="200" as="targetPoint" />
          </mxGeometry>
        </mxCell>
        <mxCell id="cNIB_TQhAoSaPseY759D-3" value="(x2, 0)" style="text;html=1;align=center;verticalAlign=middle;whiteSpace=wrap;rounded=0;" vertex="1" parent="1">
          <mxGeometry x="330" y="210" width="60" height="30" as="geometry" />
        </mxCell>
        <mxCell id="cNIB_TQhAoSaPseY759D-4" value="(x1, y1)" style="text;html=1;align=center;verticalAlign=middle;whiteSpace=wrap;rounded=0;" vertex="1" parent="1">
          <mxGeometry x="170" y="80" width="60" height="30" as="geometry" />
        </mxCell>
        <mxCell id="cNIB_TQhAoSaPseY759D-5" value="(x0, 0)" style="text;html=1;align=center;verticalAlign=middle;whiteSpace=wrap;rounded=0;" vertex="1" parent="1">
          <mxGeometry x="90" y="210" width="60" height="30" as="geometry" />
        </mxCell>
        <mxCell id="cNIB_TQhAoSaPseY759D-6" value="left" style="text;html=1;align=center;verticalAlign=middle;whiteSpace=wrap;rounded=0;" vertex="1" parent="1">
          <mxGeometry x="100" y="130" width="60" height="30" as="geometry" />
        </mxCell>
        <mxCell id="cNIB_TQhAoSaPseY759D-7" value="right" style="text;html=1;align=center;verticalAlign=middle;whiteSpace=wrap;rounded=0;" vertex="1" parent="1">
          <mxGeometry x="284" y="130" width="60" height="30" as="geometry" />
        </mxCell>
        <mxCell id="cNIB_TQhAoSaPseY759D-15" value="" style="verticalLabelPosition=bottom;verticalAlign=top;html=1;shape=mxgraph.basic.polygon;polyCoords=[[-1,0],[0,1],[1,0]];polyline=0;" vertex="1" parent="1">
          <mxGeometry x="470" y="440" width="100" height="110" as="geometry" />
        </mxCell>
        <mxCell id="cNIB_TQhAoSaPseY759D-18" value="" style="verticalLabelPosition=bottom;verticalAlign=top;html=1;shape=mxgraph.basic.acute_triangle;dx=0.5;fillColor=#0000ff;strokeColor=#10739e;opacity=50;" vertex="1" parent="1">
          <mxGeometry x="200" y="440" width="80" height="40" as="geometry" />
        </mxCell>
        <mxCell id="cNIB_TQhAoSaPseY759D-1" value="" style="endArrow=oval;html=1;rounded=0;startArrow=oval;startFill=1;endFill=1;strokeWidth=2;" edge="1" parent="1">
          <mxGeometry width="50" height="50" relative="1" as="geometry">
            <mxPoint x="80" y="480" as="sourcePoint" />
            <mxPoint x="120" y="360" as="targetPoint" />
          </mxGeometry>
        </mxCell>
        <mxCell id="cNIB_TQhAoSaPseY759D-8" value="" style="endArrow=oval;html=1;rounded=0;startArrow=oval;startFill=1;endFill=1;strokeWidth=2;" edge="1" parent="1">
          <mxGeometry width="50" height="50" relative="1" as="geometry">
            <mxPoint x="120" y="360" as="sourcePoint" />
            <mxPoint x="200" y="320" as="targetPoint" />
          </mxGeometry>
        </mxCell>
        <mxCell id="cNIB_TQhAoSaPseY759D-9" value="" style="endArrow=oval;html=1;rounded=0;startArrow=oval;startFill=1;endFill=1;strokeWidth=2;" edge="1" parent="1">
          <mxGeometry width="50" height="50" relative="1" as="geometry">
            <mxPoint x="200" y="320" as="sourcePoint" />
            <mxPoint x="240" y="440" as="targetPoint" />
          </mxGeometry>
        </mxCell>
        <mxCell id="cNIB_TQhAoSaPseY759D-10" value="" style="endArrow=oval;html=1;rounded=0;startArrow=oval;startFill=1;endFill=1;strokeWidth=2;" edge="1" parent="1">
          <mxGeometry width="50" height="50" relative="1" as="geometry">
            <mxPoint x="240" y="440" as="sourcePoint" />
            <mxPoint x="280" y="480" as="targetPoint" />
          </mxGeometry>
        </mxCell>
        <mxCell id="cNIB_TQhAoSaPseY759D-23" value="" style="verticalLabelPosition=bottom;verticalAlign=top;html=1;shape=mxgraph.basic.acute_triangle;dx=0.34;fillColor=#0000ff;strokeColor=#b46504;opacity=50;" vertex="1" parent="1">
          <mxGeometry x="80" y="360" width="120" height="120" as="geometry" />
        </mxCell>
        <mxCell id="cNIB_TQhAoSaPseY759D-17" value="" style="verticalLabelPosition=bottom;verticalAlign=top;html=1;shape=mxgraph.basic.acute_triangle;dx=0.67;fillColor=#ffff00;strokeColor=#ae4132;opacity=50;" vertex="1" parent="1">
          <mxGeometry x="120" y="320" width="120" height="160" as="geometry" />
        </mxCell>
        <mxCell id="cNIB_TQhAoSaPseY759D-24" value="" style="group;fillColor=none;strokeColor=none;" vertex="1" connectable="0" parent="1">
          <mxGeometry x="80" y="520" width="209" height="160" as="geometry" />
        </mxCell>
        <mxCell id="cNIB_TQhAoSaPseY759D-25" value="" style="verticalLabelPosition=bottom;verticalAlign=top;html=1;shape=mxgraph.basic.acute_triangle;dx=0.34;fillColor=#FFFFFF;strokeColor=none;fontColor=#333333;" vertex="1" parent="cNIB_TQhAoSaPseY759D-24">
          <mxGeometry y="40" width="120" height="120" as="geometry" />
        </mxCell>
        <mxCell id="cNIB_TQhAoSaPseY759D-26" value="" style="verticalLabelPosition=bottom;verticalAlign=top;html=1;shape=mxgraph.basic.acute_triangle;dx=0.67;fillColor=#FFFFFF;strokeColor=none;fontColor=#333333;" vertex="1" parent="cNIB_TQhAoSaPseY759D-24">
          <mxGeometry x="40" width="120" height="160" as="geometry" />
        </mxCell>
        <mxCell id="cNIB_TQhAoSaPseY759D-27" value="" style="verticalLabelPosition=bottom;verticalAlign=top;html=1;shape=mxgraph.basic.acute_triangle;dx=0.5;fillColor=#FFFFFF;strokeColor=none;fontColor=#333333;" vertex="1" parent="cNIB_TQhAoSaPseY759D-24">
          <mxGeometry x="120" y="120" width="80" height="40" as="geometry" />
        </mxCell>
        <mxCell id="cNIB_TQhAoSaPseY759D-44" value="(d, t)" style="text;strokeColor=none;align=center;fillColor=none;html=1;verticalAlign=middle;whiteSpace=wrap;rounded=0;" vertex="1" parent="cNIB_TQhAoSaPseY759D-24">
          <mxGeometry x="162" y="106" width="40" height="20" as="geometry" />
        </mxCell>
        <mxCell id="cNIB_TQhAoSaPseY759D-52" value="M" style="text;strokeColor=none;align=center;fillColor=none;html=1;verticalAlign=middle;whiteSpace=wrap;rounded=0;fontColor=#000000;" vertex="1" parent="cNIB_TQhAoSaPseY759D-24">
          <mxGeometry x="38" y="106" width="20" height="20" as="geometry" />
        </mxCell>
        <mxCell id="cNIB_TQhAoSaPseY759D-28" value="" style="verticalLabelPosition=bottom;verticalAlign=top;html=1;shape=mxgraph.basic.acute_triangle;dx=0.5;fillColor=#8000FF;strokeColor=none;opacity=60;" vertex="1" parent="1">
          <mxGeometry x="200" y="640" width="80" height="40" as="geometry" />
        </mxCell>
        <mxCell id="cNIB_TQhAoSaPseY759D-33" value="" style="verticalLabelPosition=bottom;verticalAlign=top;html=1;shape=mxgraph.basic.acute_triangle;dx=0.34;fillColor=#0080FF;strokeColor=none;opacity=60;" vertex="1" parent="1">
          <mxGeometry x="80" y="560" width="120" height="120" as="geometry" />
        </mxCell>
        <mxCell id="cNIB_TQhAoSaPseY759D-34" value="" style="verticalLabelPosition=bottom;verticalAlign=top;html=1;shape=mxgraph.basic.acute_triangle;dx=0.67;fillColor=#ffff00;strokeColor=none;opacity=50;" vertex="1" parent="1">
          <mxGeometry x="120" y="520" width="120" height="160" as="geometry" />
        </mxCell>
        <mxCell id="cNIB_TQhAoSaPseY759D-29" value="" style="endArrow=oval;html=1;rounded=0;startArrow=oval;startFill=1;endFill=1;strokeWidth=2;" edge="1" parent="1">
          <mxGeometry width="50" height="50" relative="1" as="geometry">
            <mxPoint x="80" y="680" as="sourcePoint" />
            <mxPoint x="120" y="560" as="targetPoint" />
          </mxGeometry>
        </mxCell>
        <mxCell id="cNIB_TQhAoSaPseY759D-30" value="" style="endArrow=oval;html=1;rounded=0;startArrow=oval;startFill=1;endFill=1;strokeWidth=2;" edge="1" parent="1">
          <mxGeometry width="50" height="50" relative="1" as="geometry">
            <mxPoint x="120" y="560" as="sourcePoint" />
            <mxPoint x="200" y="520" as="targetPoint" />
          </mxGeometry>
        </mxCell>
        <mxCell id="cNIB_TQhAoSaPseY759D-31" value="" style="endArrow=oval;html=1;rounded=0;startArrow=oval;startFill=1;endFill=1;strokeWidth=2;" edge="1" parent="1">
          <mxGeometry width="50" height="50" relative="1" as="geometry">
            <mxPoint x="200" y="520" as="sourcePoint" />
            <mxPoint x="240" y="640" as="targetPoint" />
          </mxGeometry>
        </mxCell>
        <mxCell id="cNIB_TQhAoSaPseY759D-32" value="" style="endArrow=oval;html=1;rounded=0;startArrow=oval;startFill=1;endFill=1;strokeWidth=2;" edge="1" parent="1">
          <mxGeometry width="50" height="50" relative="1" as="geometry">
            <mxPoint x="240" y="640" as="sourcePoint" />
            <mxPoint x="280" y="680" as="targetPoint" />
          </mxGeometry>
        </mxCell>
        <mxCell id="cNIB_TQhAoSaPseY759D-35" value="a" style="text;strokeColor=none;align=center;fillColor=none;html=1;verticalAlign=middle;whiteSpace=wrap;rounded=0;" vertex="1" parent="1">
          <mxGeometry x="70" y="690" width="20" height="20" as="geometry" />
        </mxCell>
        <mxCell id="cNIB_TQhAoSaPseY759D-36" value="b&lt;span style=&quot;color: rgba(0, 0, 0, 0); font-family: monospace; font-size: 0px; text-align: start; text-wrap: nowrap;&quot;&gt;%3CmxGraphModel%3E%3Croot%3E%3CmxCell%20id%3D%220%22%2F%3E%3CmxCell%20id%3D%221%22%20parent%3D%220%22%2F%3E%3CmxCell%20id%3D%222%22%20value%3D%22a%22%20style%3D%22text%3BstrokeColor%3Dnone%3Balign%3Dcenter%3BfillColor%3Dnone%3Bhtml%3D1%3BverticalAlign%3Dmiddle%3BwhiteSpace%3Dwrap%3Brounded%3D0%3B%22%20vertex%3D%221%22%20parent%3D%221%22%3E%3CmxGeometry%20x%3D%2270%22%20y%3D%22690%22%20width%3D%2220%22%20height%3D%2220%22%20as%3D%22geometry%22%2F%3E%3C%2FmxCell%3E%3C%2Froot%3E%3C%2FmxGraphModel%3E&lt;/span&gt;" style="text;strokeColor=none;align=center;fillColor=none;html=1;verticalAlign=middle;whiteSpace=wrap;rounded=0;" vertex="1" parent="1">
          <mxGeometry x="110" y="690" width="20" height="20" as="geometry" />
        </mxCell>
        <mxCell id="cNIB_TQhAoSaPseY759D-37" value="c" style="text;strokeColor=none;align=center;fillColor=none;html=1;verticalAlign=middle;whiteSpace=wrap;rounded=0;" vertex="1" parent="1">
          <mxGeometry x="190" y="690" width="20" height="20" as="geometry" />
        </mxCell>
        <mxCell id="cNIB_TQhAoSaPseY759D-38" value="d" style="text;strokeColor=none;align=center;fillColor=none;html=1;verticalAlign=middle;whiteSpace=wrap;rounded=0;" vertex="1" parent="1">
          <mxGeometry x="230" y="690" width="20" height="20" as="geometry" />
        </mxCell>
        <mxCell id="cNIB_TQhAoSaPseY759D-39" value="e" style="text;strokeColor=none;align=center;fillColor=none;html=1;verticalAlign=middle;whiteSpace=wrap;rounded=0;" vertex="1" parent="1">
          <mxGeometry x="270" y="690" width="20" height="20" as="geometry" />
        </mxCell>
        <mxCell id="cNIB_TQhAoSaPseY759D-40" value="(a, q)" style="text;strokeColor=none;align=center;fillColor=none;html=1;verticalAlign=middle;whiteSpace=wrap;rounded=0;" vertex="1" parent="1">
          <mxGeometry x="40" y="658" width="40" height="20" as="geometry" />
        </mxCell>
        <mxCell id="cNIB_TQhAoSaPseY759D-43" value="(c, s)" style="text;strokeColor=none;align=center;fillColor=none;html=1;verticalAlign=middle;whiteSpace=wrap;rounded=0;" vertex="1" parent="1">
          <mxGeometry x="204" y="509" width="40" height="20" as="geometry" />
        </mxCell>
        <mxCell id="cNIB_TQhAoSaPseY759D-45" value="(e, q)" style="text;strokeColor=none;align=center;fillColor=none;html=1;verticalAlign=middle;whiteSpace=wrap;rounded=0;" vertex="1" parent="1">
          <mxGeometry x="281" y="658" width="40" height="20" as="geometry" />
        </mxCell>
        <mxCell id="cNIB_TQhAoSaPseY759D-53" value="N" style="text;strokeColor=none;align=center;fillColor=none;html=1;verticalAlign=middle;whiteSpace=wrap;rounded=0;fontColor=#000000;" vertex="1" parent="1">
          <mxGeometry x="180" y="605" width="20" height="20" as="geometry" />
        </mxCell>
        <mxCell id="cNIB_TQhAoSaPseY759D-54" value="O" style="text;strokeColor=none;align=center;fillColor=none;html=1;verticalAlign=middle;whiteSpace=wrap;rounded=0;fontColor=#000000;" vertex="1" parent="1">
          <mxGeometry x="235" y="655" width="20" height="20" as="geometry" />
        </mxCell>
        <mxCell id="pVZ09ekF2YAhj7uZyrMJ-3" value="(b, r)" style="text;strokeColor=none;align=center;fillColor=none;html=1;verticalAlign=middle;whiteSpace=wrap;rounded=0;" vertex="1" parent="1">
          <mxGeometry x="78" y="549" width="40" height="20" as="geometry" />
        </mxCell>
      </root>
    </mxGraphModel>
  </diagram>
  <diagram id="yYeGEhXTq6goNU-YDO3B" name="prototype">
    <mxGraphModel dx="478" dy="319" grid="1" gridSize="10" guides="1" tooltips="1" connect="1" arrows="1" fold="1" page="1" pageScale="1" pageWidth="850" pageHeight="1100" math="0" shadow="0">
      <root>
        <mxCell id="0" />
        <mxCell id="1" parent="0" />
        <mxCell id="Nrtvo-Voap48KKnuHSKP-1" value="" style="rounded=0;whiteSpace=wrap;html=1;fillColor=#404040;strokeColor=#808080;" vertex="1" parent="1">
          <mxGeometry x="40" y="40" width="320" height="230" as="geometry" />
        </mxCell>
        <mxCell id="Nrtvo-Voap48KKnuHSKP-6" value="" style="group;fillColor=none;strokeColor=none;" vertex="1" connectable="0" parent="1">
          <mxGeometry x="100" y="70" width="209" height="160" as="geometry" />
        </mxCell>
        <mxCell id="Nrtvo-Voap48KKnuHSKP-7" value="" style="verticalLabelPosition=bottom;verticalAlign=top;html=1;shape=mxgraph.basic.acute_triangle;dx=0.34;fillColor=#FFFFFF;strokeColor=none;fontColor=#333333;" vertex="1" parent="Nrtvo-Voap48KKnuHSKP-6">
          <mxGeometry y="40" width="120" height="120" as="geometry" />
        </mxCell>
        <mxCell id="Nrtvo-Voap48KKnuHSKP-8" value="" style="verticalLabelPosition=bottom;verticalAlign=top;html=1;shape=mxgraph.basic.acute_triangle;dx=0.67;fillColor=#FFFFFF;strokeColor=none;fontColor=#333333;" vertex="1" parent="Nrtvo-Voap48KKnuHSKP-6">
          <mxGeometry x="40" width="120" height="160" as="geometry" />
        </mxCell>
        <mxCell id="Nrtvo-Voap48KKnuHSKP-9" value="" style="verticalLabelPosition=bottom;verticalAlign=top;html=1;shape=mxgraph.basic.acute_triangle;dx=0.5;fillColor=#FFFFFF;strokeColor=none;fontColor=#333333;" vertex="1" parent="Nrtvo-Voap48KKnuHSKP-6">
          <mxGeometry x="120" y="120" width="80" height="40" as="geometry" />
        </mxCell>
        <mxCell id="Nrtvo-Voap48KKnuHSKP-11" value="" style="verticalLabelPosition=bottom;verticalAlign=top;html=1;shape=mxgraph.basic.acute_triangle;dx=0.5;fillColor=#8000FF;strokeColor=none;opacity=60;" vertex="1" parent="1">
          <mxGeometry x="220" y="190" width="80" height="40" as="geometry" />
        </mxCell>
        <mxCell id="Nrtvo-Voap48KKnuHSKP-12" value="" style="verticalLabelPosition=bottom;verticalAlign=top;html=1;shape=mxgraph.basic.acute_triangle;dx=0.34;fillColor=#0080FF;strokeColor=none;opacity=60;" vertex="1" parent="1">
          <mxGeometry x="100" y="110" width="120" height="120" as="geometry" />
        </mxCell>
        <mxCell id="Nrtvo-Voap48KKnuHSKP-13" value="" style="verticalLabelPosition=bottom;verticalAlign=top;html=1;shape=mxgraph.basic.acute_triangle;dx=0.67;fillColor=#ffff00;strokeColor=none;opacity=50;" vertex="1" parent="1">
          <mxGeometry x="140" y="70" width="120" height="160" as="geometry" />
        </mxCell>
        <mxCell id="Nrtvo-Voap48KKnuHSKP-31" value="" style="group" vertex="1" connectable="0" parent="1">
          <mxGeometry x="140" y="225" width="160" height="10" as="geometry" />
        </mxCell>
        <mxCell id="Nrtvo-Voap48KKnuHSKP-2" value="" style="endArrow=none;html=1;rounded=0;strokeWidth=2;entryX=0;entryY=1;entryDx=0;entryDy=0;entryPerimeter=0;strokeColor=#000000;" edge="1" parent="Nrtvo-Voap48KKnuHSKP-31" target="Nrtvo-Voap48KKnuHSKP-12">
          <mxGeometry width="50" height="50" relative="1" as="geometry">
            <mxPoint x="160" y="5" as="sourcePoint" />
            <mxPoint x="30" y="75" as="targetPoint" />
          </mxGeometry>
        </mxCell>
        <mxCell id="Nrtvo-Voap48KKnuHSKP-3" value="" style="endArrow=none;html=1;rounded=0;strokeWidth=2;strokeColor=#000000;" edge="1" parent="Nrtvo-Voap48KKnuHSKP-31">
          <mxGeometry width="50" height="50" relative="1" as="geometry">
            <mxPoint y="10" as="sourcePoint" />
            <mxPoint as="targetPoint" />
          </mxGeometry>
        </mxCell>
        <mxCell id="Nrtvo-Voap48KKnuHSKP-4" value="" style="endArrow=none;html=1;rounded=0;strokeWidth=2;strokeColor=#000000;" edge="1" parent="Nrtvo-Voap48KKnuHSKP-31">
          <mxGeometry width="50" height="50" relative="1" as="geometry">
            <mxPoint x="80" y="10" as="sourcePoint" />
            <mxPoint x="80" as="targetPoint" />
          </mxGeometry>
        </mxCell>
        <mxCell id="Nrtvo-Voap48KKnuHSKP-5" value="" style="endArrow=none;html=1;rounded=0;strokeWidth=2;strokeColor=#000000;" edge="1" parent="Nrtvo-Voap48KKnuHSKP-31">
          <mxGeometry width="50" height="50" relative="1" as="geometry">
            <mxPoint x="120" y="10" as="sourcePoint" />
            <mxPoint x="120" as="targetPoint" />
          </mxGeometry>
        </mxCell>
        <mxCell id="Nrtvo-Voap48KKnuHSKP-14" value="" style="endArrow=oval;html=1;rounded=0;startArrow=oval;startFill=1;endFill=1;strokeWidth=2;" edge="1" parent="1">
          <mxGeometry width="50" height="50" relative="1" as="geometry">
            <mxPoint x="100" y="230" as="sourcePoint" />
            <mxPoint x="140" y="110" as="targetPoint" />
          </mxGeometry>
        </mxCell>
        <mxCell id="Nrtvo-Voap48KKnuHSKP-15" value="" style="endArrow=oval;html=1;rounded=0;startArrow=oval;startFill=1;endFill=1;strokeWidth=2;" edge="1" parent="1">
          <mxGeometry width="50" height="50" relative="1" as="geometry">
            <mxPoint x="140" y="110" as="sourcePoint" />
            <mxPoint x="220" y="70" as="targetPoint" />
          </mxGeometry>
        </mxCell>
        <mxCell id="Nrtvo-Voap48KKnuHSKP-16" value="" style="endArrow=oval;html=1;rounded=0;startArrow=oval;startFill=1;endFill=1;strokeWidth=2;" edge="1" parent="1">
          <mxGeometry width="50" height="50" relative="1" as="geometry">
            <mxPoint x="220" y="70" as="sourcePoint" />
            <mxPoint x="260" y="190" as="targetPoint" />
          </mxGeometry>
        </mxCell>
        <mxCell id="Nrtvo-Voap48KKnuHSKP-17" value="" style="endArrow=oval;html=1;rounded=0;startArrow=oval;startFill=1;endFill=1;strokeWidth=2;" edge="1" parent="1">
          <mxGeometry width="50" height="50" relative="1" as="geometry">
            <mxPoint x="260" y="190" as="sourcePoint" />
            <mxPoint x="300" y="230" as="targetPoint" />
          </mxGeometry>
        </mxCell>
        <mxCell id="Nrtvo-Voap48KKnuHSKP-18" value="a" style="text;strokeColor=none;align=center;fillColor=none;html=1;verticalAlign=middle;whiteSpace=wrap;rounded=0;" vertex="1" parent="1">
          <mxGeometry x="90" y="240" width="20" height="20" as="geometry" />
        </mxCell>
        <mxCell id="Nrtvo-Voap48KKnuHSKP-19" value="b&lt;span style=&quot;color: rgba(0, 0, 0, 0); font-family: monospace; font-size: 0px; text-align: start; text-wrap: nowrap;&quot;&gt;%3CmxGraphModel%3E%3Croot%3E%3CmxCell%20id%3D%220%22%2F%3E%3CmxCell%20id%3D%221%22%20parent%3D%220%22%2F%3E%3CmxCell%20id%3D%222%22%20value%3D%22a%22%20style%3D%22text%3BstrokeColor%3Dnone%3Balign%3Dcenter%3BfillColor%3Dnone%3Bhtml%3D1%3BverticalAlign%3Dmiddle%3BwhiteSpace%3Dwrap%3Brounded%3D0%3B%22%20vertex%3D%221%22%20parent%3D%221%22%3E%3CmxGeometry%20x%3D%2270%22%20y%3D%22690%22%20width%3D%2220%22%20height%3D%2220%22%20as%3D%22geometry%22%2F%3E%3C%2FmxCell%3E%3C%2Froot%3E%3C%2FmxGraphModel%3E&lt;/span&gt;" style="text;strokeColor=none;align=center;fillColor=none;html=1;verticalAlign=middle;whiteSpace=wrap;rounded=0;" vertex="1" parent="1">
          <mxGeometry x="130" y="240" width="20" height="20" as="geometry" />
        </mxCell>
        <mxCell id="Nrtvo-Voap48KKnuHSKP-20" value="c" style="text;strokeColor=none;align=center;fillColor=none;html=1;verticalAlign=middle;whiteSpace=wrap;rounded=0;" vertex="1" parent="1">
          <mxGeometry x="210" y="240" width="20" height="20" as="geometry" />
        </mxCell>
        <mxCell id="Nrtvo-Voap48KKnuHSKP-21" value="d" style="text;strokeColor=none;align=center;fillColor=none;html=1;verticalAlign=middle;whiteSpace=wrap;rounded=0;" vertex="1" parent="1">
          <mxGeometry x="250" y="240" width="20" height="20" as="geometry" />
        </mxCell>
        <mxCell id="Nrtvo-Voap48KKnuHSKP-22" value="e" style="text;strokeColor=none;align=center;fillColor=none;html=1;verticalAlign=middle;whiteSpace=wrap;rounded=0;" vertex="1" parent="1">
          <mxGeometry x="290" y="240" width="20" height="20" as="geometry" />
        </mxCell>
        <mxCell id="Nrtvo-Voap48KKnuHSKP-23" value="(a, q)" style="text;strokeColor=none;align=center;fillColor=none;html=1;verticalAlign=middle;whiteSpace=wrap;rounded=0;" vertex="1" parent="1">
          <mxGeometry x="60" y="208" width="40" height="20" as="geometry" />
        </mxCell>
        <mxCell id="Nrtvo-Voap48KKnuHSKP-24" value="(c, s)" style="text;strokeColor=none;align=center;fillColor=none;html=1;verticalAlign=middle;whiteSpace=wrap;rounded=0;" vertex="1" parent="1">
          <mxGeometry x="224" y="59" width="40" height="20" as="geometry" />
        </mxCell>
        <mxCell id="Nrtvo-Voap48KKnuHSKP-25" value="(e, q)" style="text;strokeColor=none;align=center;fillColor=none;html=1;verticalAlign=middle;whiteSpace=wrap;rounded=0;" vertex="1" parent="1">
          <mxGeometry x="301" y="208" width="40" height="20" as="geometry" />
        </mxCell>
        <mxCell id="Nrtvo-Voap48KKnuHSKP-26" value="N" style="text;strokeColor=none;align=center;fillColor=none;html=1;verticalAlign=middle;whiteSpace=wrap;rounded=0;fontColor=#000000;" vertex="1" parent="1">
          <mxGeometry x="200" y="155" width="20" height="20" as="geometry" />
        </mxCell>
        <mxCell id="Nrtvo-Voap48KKnuHSKP-27" value="O" style="text;strokeColor=none;align=center;fillColor=none;html=1;verticalAlign=middle;whiteSpace=wrap;rounded=0;fontColor=#000000;" vertex="1" parent="1">
          <mxGeometry x="255" y="205" width="20" height="20" as="geometry" />
        </mxCell>
        <mxCell id="Nrtvo-Voap48KKnuHSKP-28" value="(b, r)" style="text;strokeColor=none;align=center;fillColor=none;html=1;verticalAlign=middle;whiteSpace=wrap;rounded=0;" vertex="1" parent="1">
          <mxGeometry x="98" y="99" width="40" height="20" as="geometry" />
        </mxCell>
        <mxCell id="Nrtvo-Voap48KKnuHSKP-29" value="M" style="text;strokeColor=none;align=center;fillColor=none;html=1;verticalAlign=middle;whiteSpace=wrap;rounded=0;fontColor=#000000;" vertex="1" parent="1">
          <mxGeometry x="138" y="176" width="20" height="20" as="geometry" />
        </mxCell>
        <mxCell id="Nrtvo-Voap48KKnuHSKP-30" value="(d, t)" style="text;strokeColor=none;align=center;fillColor=none;html=1;verticalAlign=middle;whiteSpace=wrap;rounded=0;" vertex="1" parent="1">
          <mxGeometry x="262" y="177" width="40" height="20" as="geometry" />
        </mxCell>
      </root>
    </mxGraphModel>
  </diagram>
  <diagram name="function" id="UIE-w1hjN44cTYG3ivqO">
    <mxGraphModel dx="683" dy="455" grid="1" gridSize="10" guides="1" tooltips="1" connect="1" arrows="1" fold="1" page="1" pageScale="1" pageWidth="850" pageHeight="1100" math="0" shadow="0">
      <root>
        <mxCell id="0sRNc141G-wIBBAe2Od6-0" />
        <mxCell id="0sRNc141G-wIBBAe2Od6-1" parent="0sRNc141G-wIBBAe2Od6-0" />
        <mxCell id="0sRNc141G-wIBBAe2Od6-2" value="" style="rounded=0;whiteSpace=wrap;html=1;fillColor=#404040;strokeColor=#808080;" vertex="1" parent="0sRNc141G-wIBBAe2Od6-1">
          <mxGeometry x="40" y="40" width="320" height="230" as="geometry" />
        </mxCell>
        <mxCell id="0sRNc141G-wIBBAe2Od6-10" value="" style="group" vertex="1" connectable="0" parent="0sRNc141G-wIBBAe2Od6-1">
          <mxGeometry x="140" y="225" width="160" height="10" as="geometry" />
        </mxCell>
        <mxCell id="0sRNc141G-wIBBAe2Od6-11" value="" style="endArrow=none;html=1;rounded=0;strokeWidth=2;entryX=0;entryY=1;entryDx=0;entryDy=0;entryPerimeter=0;strokeColor=#000000;" edge="1" parent="0sRNc141G-wIBBAe2Od6-10">
          <mxGeometry width="50" height="50" relative="1" as="geometry">
            <mxPoint x="160" y="5" as="sourcePoint" />
            <mxPoint x="-40" y="5" as="targetPoint" />
          </mxGeometry>
        </mxCell>
        <mxCell id="0sRNc141G-wIBBAe2Od6-12" value="" style="endArrow=none;html=1;rounded=0;strokeWidth=2;strokeColor=#000000;" edge="1" parent="0sRNc141G-wIBBAe2Od6-10">
          <mxGeometry width="50" height="50" relative="1" as="geometry">
            <mxPoint y="10" as="sourcePoint" />
            <mxPoint as="targetPoint" />
          </mxGeometry>
        </mxCell>
        <mxCell id="0sRNc141G-wIBBAe2Od6-13" value="" style="endArrow=none;html=1;rounded=0;strokeWidth=2;strokeColor=#000000;" edge="1" parent="0sRNc141G-wIBBAe2Od6-10">
          <mxGeometry width="50" height="50" relative="1" as="geometry">
            <mxPoint x="80" y="10" as="sourcePoint" />
            <mxPoint x="80" as="targetPoint" />
          </mxGeometry>
        </mxCell>
        <mxCell id="0sRNc141G-wIBBAe2Od6-14" value="" style="endArrow=none;html=1;rounded=0;strokeWidth=2;strokeColor=#000000;" edge="1" parent="0sRNc141G-wIBBAe2Od6-10">
          <mxGeometry width="50" height="50" relative="1" as="geometry">
            <mxPoint x="120" y="10" as="sourcePoint" />
            <mxPoint x="120" as="targetPoint" />
          </mxGeometry>
        </mxCell>
        <mxCell id="0sRNc141G-wIBBAe2Od6-15" value="" style="endArrow=oval;html=1;rounded=0;startArrow=oval;startFill=1;endFill=1;strokeWidth=2;" edge="1" parent="0sRNc141G-wIBBAe2Od6-1">
          <mxGeometry width="50" height="50" relative="1" as="geometry">
            <mxPoint x="100" y="230" as="sourcePoint" />
            <mxPoint x="140" y="110" as="targetPoint" />
          </mxGeometry>
        </mxCell>
        <mxCell id="0sRNc141G-wIBBAe2Od6-16" value="" style="endArrow=oval;html=1;rounded=0;startArrow=oval;startFill=1;endFill=1;strokeWidth=2;" edge="1" parent="0sRNc141G-wIBBAe2Od6-1">
          <mxGeometry width="50" height="50" relative="1" as="geometry">
            <mxPoint x="140" y="110" as="sourcePoint" />
            <mxPoint x="220" y="70" as="targetPoint" />
          </mxGeometry>
        </mxCell>
        <mxCell id="0sRNc141G-wIBBAe2Od6-17" value="" style="endArrow=oval;html=1;rounded=0;startArrow=oval;startFill=1;endFill=1;strokeWidth=2;" edge="1" parent="0sRNc141G-wIBBAe2Od6-1">
          <mxGeometry width="50" height="50" relative="1" as="geometry">
            <mxPoint x="220" y="70" as="sourcePoint" />
            <mxPoint x="260" y="190" as="targetPoint" />
          </mxGeometry>
        </mxCell>
        <mxCell id="0sRNc141G-wIBBAe2Od6-18" value="" style="endArrow=oval;html=1;rounded=0;startArrow=oval;startFill=1;endFill=1;strokeWidth=2;" edge="1" parent="0sRNc141G-wIBBAe2Od6-1">
          <mxGeometry width="50" height="50" relative="1" as="geometry">
            <mxPoint x="260" y="190" as="sourcePoint" />
            <mxPoint x="300" y="230" as="targetPoint" />
          </mxGeometry>
        </mxCell>
        <mxCell id="0sRNc141G-wIBBAe2Od6-19" value="a" style="text;strokeColor=none;align=center;fillColor=none;html=1;verticalAlign=middle;whiteSpace=wrap;rounded=0;" vertex="1" parent="0sRNc141G-wIBBAe2Od6-1">
          <mxGeometry x="90" y="240" width="20" height="20" as="geometry" />
        </mxCell>
        <mxCell id="0sRNc141G-wIBBAe2Od6-20" value="b&lt;span style=&quot;color: rgba(0, 0, 0, 0); font-family: monospace; font-size: 0px; text-align: start; text-wrap: nowrap;&quot;&gt;%3CmxGraphModel%3E%3Croot%3E%3CmxCell%20id%3D%220%22%2F%3E%3CmxCell%20id%3D%221%22%20parent%3D%220%22%2F%3E%3CmxCell%20id%3D%222%22%20value%3D%22a%22%20style%3D%22text%3BstrokeColor%3Dnone%3Balign%3Dcenter%3BfillColor%3Dnone%3Bhtml%3D1%3BverticalAlign%3Dmiddle%3BwhiteSpace%3Dwrap%3Brounded%3D0%3B%22%20vertex%3D%221%22%20parent%3D%221%22%3E%3CmxGeometry%20x%3D%2270%22%20y%3D%22690%22%20width%3D%2220%22%20height%3D%2220%22%20as%3D%22geometry%22%2F%3E%3C%2FmxCell%3E%3C%2Froot%3E%3C%2FmxGraphModel%3E&lt;/span&gt;" style="text;strokeColor=none;align=center;fillColor=none;html=1;verticalAlign=middle;whiteSpace=wrap;rounded=0;" vertex="1" parent="0sRNc141G-wIBBAe2Od6-1">
          <mxGeometry x="130" y="240" width="20" height="20" as="geometry" />
        </mxCell>
        <mxCell id="0sRNc141G-wIBBAe2Od6-21" value="c" style="text;strokeColor=none;align=center;fillColor=none;html=1;verticalAlign=middle;whiteSpace=wrap;rounded=0;" vertex="1" parent="0sRNc141G-wIBBAe2Od6-1">
          <mxGeometry x="210" y="240" width="20" height="20" as="geometry" />
        </mxCell>
        <mxCell id="0sRNc141G-wIBBAe2Od6-22" value="d" style="text;strokeColor=none;align=center;fillColor=none;html=1;verticalAlign=middle;whiteSpace=wrap;rounded=0;" vertex="1" parent="0sRNc141G-wIBBAe2Od6-1">
          <mxGeometry x="250" y="240" width="20" height="20" as="geometry" />
        </mxCell>
        <mxCell id="0sRNc141G-wIBBAe2Od6-23" value="e" style="text;strokeColor=none;align=center;fillColor=none;html=1;verticalAlign=middle;whiteSpace=wrap;rounded=0;" vertex="1" parent="0sRNc141G-wIBBAe2Od6-1">
          <mxGeometry x="290" y="240" width="20" height="20" as="geometry" />
        </mxCell>
        <mxCell id="0sRNc141G-wIBBAe2Od6-24" value="(a, q)" style="text;strokeColor=none;align=center;fillColor=none;html=1;verticalAlign=middle;whiteSpace=wrap;rounded=0;" vertex="1" parent="0sRNc141G-wIBBAe2Od6-1">
          <mxGeometry x="60" y="208" width="40" height="20" as="geometry" />
        </mxCell>
        <mxCell id="0sRNc141G-wIBBAe2Od6-25" value="(c, s)" style="text;strokeColor=none;align=center;fillColor=none;html=1;verticalAlign=middle;whiteSpace=wrap;rounded=0;" vertex="1" parent="0sRNc141G-wIBBAe2Od6-1">
          <mxGeometry x="224" y="59" width="40" height="20" as="geometry" />
        </mxCell>
        <mxCell id="0sRNc141G-wIBBAe2Od6-26" value="(e, q)" style="text;strokeColor=none;align=center;fillColor=none;html=1;verticalAlign=middle;whiteSpace=wrap;rounded=0;" vertex="1" parent="0sRNc141G-wIBBAe2Od6-1">
          <mxGeometry x="301" y="208" width="40" height="20" as="geometry" />
        </mxCell>
        <mxCell id="0sRNc141G-wIBBAe2Od6-29" value="(b, r)" style="text;strokeColor=none;align=center;fillColor=none;html=1;verticalAlign=middle;whiteSpace=wrap;rounded=0;" vertex="1" parent="0sRNc141G-wIBBAe2Od6-1">
          <mxGeometry x="98" y="99" width="40" height="20" as="geometry" />
        </mxCell>
        <mxCell id="0sRNc141G-wIBBAe2Od6-31" value="(d, t)" style="text;strokeColor=none;align=center;fillColor=none;html=1;verticalAlign=middle;whiteSpace=wrap;rounded=0;" vertex="1" parent="0sRNc141G-wIBBAe2Od6-1">
          <mxGeometry x="262" y="177" width="40" height="20" as="geometry" />
        </mxCell>
      </root>
    </mxGraphModel>
  </diagram>
  <diagram name="hats" id="faJ4tSZkVOQWCHBMxRM3">
    <mxGraphModel dx="683" dy="455" grid="1" gridSize="10" guides="1" tooltips="1" connect="1" arrows="1" fold="1" page="1" pageScale="1" pageWidth="850" pageHeight="1100" math="0" shadow="0">
      <root>
        <mxCell id="8grsTy6Tk3iH-jr-9vHp-0" />
        <mxCell id="8grsTy6Tk3iH-jr-9vHp-1" parent="8grsTy6Tk3iH-jr-9vHp-0" />
        <mxCell id="8grsTy6Tk3iH-jr-9vHp-2" value="" style="rounded=0;whiteSpace=wrap;html=1;fillColor=#404040;strokeColor=#808080;" vertex="1" parent="8grsTy6Tk3iH-jr-9vHp-1">
          <mxGeometry x="40" y="40" width="320" height="230" as="geometry" />
        </mxCell>
        <mxCell id="8grsTy6Tk3iH-jr-9vHp-3" value="" style="group;fillColor=none;strokeColor=none;" vertex="1" connectable="0" parent="8grsTy6Tk3iH-jr-9vHp-1">
          <mxGeometry x="100" y="70" width="209" height="160" as="geometry" />
        </mxCell>
        <mxCell id="8grsTy6Tk3iH-jr-9vHp-4" value="" style="verticalLabelPosition=bottom;verticalAlign=top;html=1;shape=mxgraph.basic.acute_triangle;dx=0.34;fillColor=#FFFFFF;strokeColor=none;fontColor=#333333;" vertex="1" parent="8grsTy6Tk3iH-jr-9vHp-3">
          <mxGeometry y="40" width="120" height="120" as="geometry" />
        </mxCell>
        <mxCell id="8grsTy6Tk3iH-jr-9vHp-5" value="" style="verticalLabelPosition=bottom;verticalAlign=top;html=1;shape=mxgraph.basic.acute_triangle;dx=0.67;fillColor=#FFFFFF;strokeColor=none;fontColor=#333333;" vertex="1" parent="8grsTy6Tk3iH-jr-9vHp-3">
          <mxGeometry x="40" width="120" height="160" as="geometry" />
        </mxCell>
        <mxCell id="8grsTy6Tk3iH-jr-9vHp-6" value="" style="verticalLabelPosition=bottom;verticalAlign=top;html=1;shape=mxgraph.basic.acute_triangle;dx=0.5;fillColor=#FFFFFF;strokeColor=none;fontColor=#333333;" vertex="1" parent="8grsTy6Tk3iH-jr-9vHp-3">
          <mxGeometry x="120" y="120" width="80" height="40" as="geometry" />
        </mxCell>
        <mxCell id="8grsTy6Tk3iH-jr-9vHp-7" value="" style="verticalLabelPosition=bottom;verticalAlign=top;html=1;shape=mxgraph.basic.acute_triangle;dx=0.5;fillColor=#8000FF;strokeColor=none;opacity=60;" vertex="1" parent="8grsTy6Tk3iH-jr-9vHp-1">
          <mxGeometry x="220" y="190" width="80" height="40" as="geometry" />
        </mxCell>
        <mxCell id="8grsTy6Tk3iH-jr-9vHp-8" value="" style="verticalLabelPosition=bottom;verticalAlign=top;html=1;shape=mxgraph.basic.acute_triangle;dx=0.34;fillColor=#0080FF;strokeColor=none;opacity=60;" vertex="1" parent="8grsTy6Tk3iH-jr-9vHp-1">
          <mxGeometry x="100" y="110" width="120" height="120" as="geometry" />
        </mxCell>
        <mxCell id="8grsTy6Tk3iH-jr-9vHp-9" value="" style="verticalLabelPosition=bottom;verticalAlign=top;html=1;shape=mxgraph.basic.acute_triangle;dx=0.67;fillColor=#ffff00;strokeColor=none;opacity=50;" vertex="1" parent="8grsTy6Tk3iH-jr-9vHp-1">
          <mxGeometry x="140" y="70" width="120" height="160" as="geometry" />
        </mxCell>
        <mxCell id="8grsTy6Tk3iH-jr-9vHp-10" value="" style="group" vertex="1" connectable="0" parent="8grsTy6Tk3iH-jr-9vHp-1">
          <mxGeometry x="140" y="225" width="160" height="10" as="geometry" />
        </mxCell>
        <mxCell id="8grsTy6Tk3iH-jr-9vHp-11" value="" style="endArrow=none;html=1;rounded=0;strokeWidth=2;entryX=0;entryY=1;entryDx=0;entryDy=0;entryPerimeter=0;strokeColor=#000000;" edge="1" parent="8grsTy6Tk3iH-jr-9vHp-10" target="8grsTy6Tk3iH-jr-9vHp-8">
          <mxGeometry width="50" height="50" relative="1" as="geometry">
            <mxPoint x="160" y="5" as="sourcePoint" />
            <mxPoint x="30" y="75" as="targetPoint" />
          </mxGeometry>
        </mxCell>
        <mxCell id="8grsTy6Tk3iH-jr-9vHp-12" value="" style="endArrow=none;html=1;rounded=0;strokeWidth=2;strokeColor=#000000;" edge="1" parent="8grsTy6Tk3iH-jr-9vHp-10">
          <mxGeometry width="50" height="50" relative="1" as="geometry">
            <mxPoint y="10" as="sourcePoint" />
            <mxPoint as="targetPoint" />
          </mxGeometry>
        </mxCell>
        <mxCell id="8grsTy6Tk3iH-jr-9vHp-13" value="" style="endArrow=none;html=1;rounded=0;strokeWidth=2;strokeColor=#000000;" edge="1" parent="8grsTy6Tk3iH-jr-9vHp-10">
          <mxGeometry width="50" height="50" relative="1" as="geometry">
            <mxPoint x="80" y="10" as="sourcePoint" />
            <mxPoint x="80" as="targetPoint" />
          </mxGeometry>
        </mxCell>
        <mxCell id="8grsTy6Tk3iH-jr-9vHp-14" value="" style="endArrow=none;html=1;rounded=0;strokeWidth=2;strokeColor=#000000;" edge="1" parent="8grsTy6Tk3iH-jr-9vHp-10">
          <mxGeometry width="50" height="50" relative="1" as="geometry">
            <mxPoint x="120" y="10" as="sourcePoint" />
            <mxPoint x="120" as="targetPoint" />
          </mxGeometry>
        </mxCell>
        <mxCell id="8grsTy6Tk3iH-jr-9vHp-15" value="" style="endArrow=oval;html=1;rounded=0;startArrow=oval;startFill=1;endFill=1;strokeWidth=2;" edge="1" parent="8grsTy6Tk3iH-jr-9vHp-1">
          <mxGeometry width="50" height="50" relative="1" as="geometry">
            <mxPoint x="100" y="230" as="sourcePoint" />
            <mxPoint x="140" y="110" as="targetPoint" />
          </mxGeometry>
        </mxCell>
        <mxCell id="8grsTy6Tk3iH-jr-9vHp-16" value="" style="endArrow=oval;html=1;rounded=0;startArrow=oval;startFill=1;endFill=1;strokeWidth=2;" edge="1" parent="8grsTy6Tk3iH-jr-9vHp-1">
          <mxGeometry width="50" height="50" relative="1" as="geometry">
            <mxPoint x="140" y="110" as="sourcePoint" />
            <mxPoint x="220" y="70" as="targetPoint" />
          </mxGeometry>
        </mxCell>
        <mxCell id="8grsTy6Tk3iH-jr-9vHp-17" value="" style="endArrow=oval;html=1;rounded=0;startArrow=oval;startFill=1;endFill=1;strokeWidth=2;" edge="1" parent="8grsTy6Tk3iH-jr-9vHp-1">
          <mxGeometry width="50" height="50" relative="1" as="geometry">
            <mxPoint x="220" y="70" as="sourcePoint" />
            <mxPoint x="260" y="190" as="targetPoint" />
          </mxGeometry>
        </mxCell>
        <mxCell id="8grsTy6Tk3iH-jr-9vHp-18" value="" style="endArrow=oval;html=1;rounded=0;startArrow=oval;startFill=1;endFill=1;strokeWidth=2;" edge="1" parent="8grsTy6Tk3iH-jr-9vHp-1">
          <mxGeometry width="50" height="50" relative="1" as="geometry">
            <mxPoint x="260" y="190" as="sourcePoint" />
            <mxPoint x="300" y="230" as="targetPoint" />
          </mxGeometry>
        </mxCell>
        <mxCell id="8grsTy6Tk3iH-jr-9vHp-19" value="a" style="text;strokeColor=none;align=center;fillColor=none;html=1;verticalAlign=middle;whiteSpace=wrap;rounded=0;" vertex="1" parent="8grsTy6Tk3iH-jr-9vHp-1">
          <mxGeometry x="90" y="240" width="20" height="20" as="geometry" />
        </mxCell>
        <mxCell id="8grsTy6Tk3iH-jr-9vHp-20" value="b&lt;span style=&quot;color: rgba(0, 0, 0, 0); font-family: monospace; font-size: 0px; text-align: start; text-wrap: nowrap;&quot;&gt;%3CmxGraphModel%3E%3Croot%3E%3CmxCell%20id%3D%220%22%2F%3E%3CmxCell%20id%3D%221%22%20parent%3D%220%22%2F%3E%3CmxCell%20id%3D%222%22%20value%3D%22a%22%20style%3D%22text%3BstrokeColor%3Dnone%3Balign%3Dcenter%3BfillColor%3Dnone%3Bhtml%3D1%3BverticalAlign%3Dmiddle%3BwhiteSpace%3Dwrap%3Brounded%3D0%3B%22%20vertex%3D%221%22%20parent%3D%221%22%3E%3CmxGeometry%20x%3D%2270%22%20y%3D%22690%22%20width%3D%2220%22%20height%3D%2220%22%20as%3D%22geometry%22%2F%3E%3C%2FmxCell%3E%3C%2Froot%3E%3C%2FmxGraphModel%3E&lt;/span&gt;" style="text;strokeColor=none;align=center;fillColor=none;html=1;verticalAlign=middle;whiteSpace=wrap;rounded=0;" vertex="1" parent="8grsTy6Tk3iH-jr-9vHp-1">
          <mxGeometry x="130" y="240" width="20" height="20" as="geometry" />
        </mxCell>
        <mxCell id="8grsTy6Tk3iH-jr-9vHp-21" value="c" style="text;strokeColor=none;align=center;fillColor=none;html=1;verticalAlign=middle;whiteSpace=wrap;rounded=0;" vertex="1" parent="8grsTy6Tk3iH-jr-9vHp-1">
          <mxGeometry x="210" y="240" width="20" height="20" as="geometry" />
        </mxCell>
        <mxCell id="8grsTy6Tk3iH-jr-9vHp-22" value="d" style="text;strokeColor=none;align=center;fillColor=none;html=1;verticalAlign=middle;whiteSpace=wrap;rounded=0;" vertex="1" parent="8grsTy6Tk3iH-jr-9vHp-1">
          <mxGeometry x="250" y="240" width="20" height="20" as="geometry" />
        </mxCell>
        <mxCell id="8grsTy6Tk3iH-jr-9vHp-23" value="e" style="text;strokeColor=none;align=center;fillColor=none;html=1;verticalAlign=middle;whiteSpace=wrap;rounded=0;" vertex="1" parent="8grsTy6Tk3iH-jr-9vHp-1">
          <mxGeometry x="290" y="240" width="20" height="20" as="geometry" />
        </mxCell>
        <mxCell id="8grsTy6Tk3iH-jr-9vHp-24" value="(a, q)" style="text;strokeColor=none;align=center;fillColor=none;html=1;verticalAlign=middle;whiteSpace=wrap;rounded=0;" vertex="1" parent="8grsTy6Tk3iH-jr-9vHp-1">
          <mxGeometry x="60" y="208" width="40" height="20" as="geometry" />
        </mxCell>
        <mxCell id="8grsTy6Tk3iH-jr-9vHp-25" value="(c, s)" style="text;strokeColor=none;align=center;fillColor=none;html=1;verticalAlign=middle;whiteSpace=wrap;rounded=0;" vertex="1" parent="8grsTy6Tk3iH-jr-9vHp-1">
          <mxGeometry x="224" y="59" width="40" height="20" as="geometry" />
        </mxCell>
        <mxCell id="8grsTy6Tk3iH-jr-9vHp-26" value="(e, q)" style="text;strokeColor=none;align=center;fillColor=none;html=1;verticalAlign=middle;whiteSpace=wrap;rounded=0;" vertex="1" parent="8grsTy6Tk3iH-jr-9vHp-1">
          <mxGeometry x="301" y="208" width="40" height="20" as="geometry" />
        </mxCell>
        <mxCell id="8grsTy6Tk3iH-jr-9vHp-27" value="N" style="text;strokeColor=none;align=center;fillColor=none;html=1;verticalAlign=middle;whiteSpace=wrap;rounded=0;fontColor=#000000;" vertex="1" parent="8grsTy6Tk3iH-jr-9vHp-1">
          <mxGeometry x="200" y="155" width="20" height="20" as="geometry" />
        </mxCell>
        <mxCell id="8grsTy6Tk3iH-jr-9vHp-28" value="O" style="text;strokeColor=none;align=center;fillColor=none;html=1;verticalAlign=middle;whiteSpace=wrap;rounded=0;fontColor=#000000;" vertex="1" parent="8grsTy6Tk3iH-jr-9vHp-1">
          <mxGeometry x="255" y="205" width="20" height="20" as="geometry" />
        </mxCell>
        <mxCell id="8grsTy6Tk3iH-jr-9vHp-29" value="(b, r)" style="text;strokeColor=none;align=center;fillColor=none;html=1;verticalAlign=middle;whiteSpace=wrap;rounded=0;" vertex="1" parent="8grsTy6Tk3iH-jr-9vHp-1">
          <mxGeometry x="98" y="99" width="40" height="20" as="geometry" />
        </mxCell>
        <mxCell id="8grsTy6Tk3iH-jr-9vHp-30" value="M" style="text;strokeColor=none;align=center;fillColor=none;html=1;verticalAlign=middle;whiteSpace=wrap;rounded=0;fontColor=#000000;" vertex="1" parent="8grsTy6Tk3iH-jr-9vHp-1">
          <mxGeometry x="138" y="176" width="20" height="20" as="geometry" />
        </mxCell>
        <mxCell id="8grsTy6Tk3iH-jr-9vHp-31" value="(d, t)" style="text;strokeColor=none;align=center;fillColor=none;html=1;verticalAlign=middle;whiteSpace=wrap;rounded=0;" vertex="1" parent="8grsTy6Tk3iH-jr-9vHp-1">
          <mxGeometry x="262" y="177" width="40" height="20" as="geometry" />
        </mxCell>
      </root>
    </mxGraphModel>
  </diagram>
</mxfile>
